<svg xmlns="http://www.w3.org/2000/svg"><symbol id="icon-yahoo" viewBox="0 0 30.56 30"><defs><style>.cls-1{fill-rule:evenodd}</style></defs><path d="M17.362 4l.253 3 3.592.85c-.405 1.2-2.074 3.55-4.958 7.05-2.327-4.55-4.2-8.5-5.564-11.55l4.1-.65.246-2.7H.006v3l4.351.9a72.735 72.735 0 0 1 4.351 7.55 58.787 58.787 0 0 1 3.44 7.15l.05 2.8v1.45a21.882 21.882 0 0 1-.151 3.6c0 .05-.2.3-1.518.45l-2.479.15L7.645 30h14.117l.86-3.15-4.6-.1-.26-3.75.2-4.4c.152-.65.962-2.2 3.9-5.85 2.934-3.8 3.794-4.5 3.946-4.6L29.348 7l1.214-3h-13.2zm10.726 2.2l-2.631 1.05c-.506.2-1.417 1.1-4.4 4.9-2.529 3.1-4.4 5.2-4.653 6.3l-.2 3.994-.078 5.334 4.631.022-.195.533-11.111.556.065-.334 1.114-.05c1.214-.15 1.973-.4 2.277-.9.151-.15.859-1.005.859-4.706V21.45l-.051-2.9v-.1c-.2-1.05-2.327-5.1-3.541-7.45a74.8 74.8 0 0 0-4.553-7.85L5.469 3l-3.9-.8v-.644h11.793l-.05.244-4.6.7.25.6c1.467 3.3 3.591 7.75 6.222 12.9l.91 1.306 1.061-1.156c4.551-5.786 5.225-7.826 5.66-8.581a.643.643 0 0 0 .107-.419l-3.743-.9-.1-.644h9.513z" class="cls-1"/></symbol><symbol id="icon-facebook" viewBox="0 0 1000 1000"><path d="M581.7 336.7v-97.2c0-43.9 9.7-66.1 77.8-66.1H745V10H602.3c-174.8 0-232.5 80.1-232.5 217.7v109H255V500h114.8v490h211.8V500h143.9L745 336.7H581.7zm107.7 122.5H540.9v490H410.7V459.1H295.9v-81.7h114.8V227.7c0-62.5 13.8-105.1 39.6-132.2 28.6-30.6 79.4-44.7 152.1-44.7h101.8v81.7h-44.7c-30.6 0-70.2 2.8-94.7 29.9-20.7 23-24 51.3-24 76.8v138.4H699l-9.6 81.6z"/></symbol><symbol id="icon-outlook" viewBox="0 0 32.22 29.97"><path d="M17.75.198a1.017 1.017 0 0 0-.827-.212l-16.112 3a1 1 0 0 0-.822.982v22.001a1 1 0 0 0 .822.982l16.112 3a.959.959 0 0 0 .185.018 1.01 1.01 0 0 0 .642-.23 1 1 0 0 0 .365-.77v-28a.994.994 0 0 0-.365-.771zm-1.649 27.565l-14.1-2.624V4.798l14.1-2.624v25.589zM9.056 9.969c-2.775 0-5.035 2.692-5.035 6s2.26 6 5.035 6 5.035-2.692 5.035-6-2.264-6-5.035-6zm0 10c-1.665 0-3.021-1.794-3.021-4s1.356-4 3.021-4 3.021 1.794 3.021 4-1.359 4-3.021 4zm22.15-14h-14.1a1 1 0 1 0 0 2h13.091v14H17.108a1 1 0 1 0 0 2h14.1a1 1 0 0 0 1.006-1v-16a1 1 0 0 0-1.008-1zm.793.384a1.008 1.008 0 0 0-1.412-.174l-8.505 6.568-4.434-2.8a1.014 1.014 0 0 0-1.39.308 1 1 0 0 0 .308 1.38l5.035 3.18a1.017 1.017 0 0 0 .542.156.992.992 0 0 0 .616-.212l9.063-7a.994.994 0 0 0 .177-1.407z" class="cls-1"/></symbol><symbol id="icon-twitter" viewBox="0 0 1000 1000"><path d="M326.3 902.3c-108.9 0-214.8-31-306.3-89.7-8.6-5.5-12.2-16.1-8.8-25.7 3.4-9.6 13.1-15.7 23.1-14.3 76.7 8.9 156.8-6.7 224-45.1-66.5-19.9-120.5-71.4-142.3-139.6-2.4-7.4-.7-15.4 4.5-21.1 3.1-3.5 7.3-5.8 11.8-6.8-51.9-39.6-84.7-102-84.7-170.5 0-7.7 4.1-16 10.7-19.9 6.7-3.9 14.9-5.2 21.6-1.5 1.9 1.1 3.9 2.1 5.8 3.1-23.6-34.8-36.6-76.4-36.6-119.9 0-37.7 10-74.9 29-107.5 3.6-6.2 10-10.2 17.1-10.8 7.2-.6 14.1 2.4 18.6 7.9C202 249 329.5 317.5 467.1 331.6c-.6-6.6-.9-13.3-.9-19.9 0-117.9 96-213.9 213.9-213.9 54.8 0 107.8 21.2 147.3 58.7 36.4-8.3 71.2-22.3 103.8-41.6 7.8-4.5 17.6-3.9 24.7 1.7 7.1 5.7 9.9 15.1 7.2 23.7-6.9 21.7-17.2 41.9-30.4 60.1 9-3.1 17.9-6.7 26.7-10.5 8.8-4 19.3-1.6 25.5 5.9 6.2 7.4 6.8 18.1 1.4 26.1-25.3 37.7-56.1 70.6-91.8 97.9.1 4.7.2 9.5.2 14.2 0 279.3-212.6 568.3-568.4 568.3zm-206-85.8c64.8 27.7 134.7 42.2 206.1 42.2 328.5 0 524.8-266.9 524.8-524.8 0-8-.2-16-.5-24-.3-7.3 3.1-14.3 9-18.5 15.7-11.3 30.4-23.8 44.1-37.4-14.2 3.3-28.6 5.8-43.2 7.5-10.1 1.5-19.9-4.8-23.2-14.5-3.3-9.7.6-20.4 9.4-25.7 17.3-10.4 32.5-23.6 44.9-38.9-21.7 8.3-44.1 14.8-67 19.3-7.3 1.5-15-.9-20.1-6.5-32.1-34.2-77.4-53.8-124.4-53.8-93.9 0-170.3 76.4-170.3 170.3 0 13 1.5 26.1 4.4 38.9 1.5 6.6-.1 13.7-4.5 18.9-4.4 5.2-11 8.9-17.8 7.7-148.7-7.4-288.7-73.6-389.4-182.8-6.5 18.2-9.8 37.5-9.8 56.9 0 57.1 28.3 110.1 75.7 141.8 8.1 5.4 11.6 15.5 8.7 24.8-2.9 9.2-12.2 14.8-21.4 15.2-20.8-.6-41.4-4.3-61.1-11 13.4 67.5 65.3 121 133.1 134.6 9.9 2 17.1 10.5 17.5 20.6.4 10.1-6.3 19.1-16 21.8-18.8 5.1-38.5 7.9-57.8 7.6 29.2 51.6 84 85.2 145.2 86.5 9.2.2 17.3 6.2 20.2 14.9 2.9 8.7 0 18.4-7.2 24-61.3 47.8-133 76.6-209.4 84.4z"/></symbol><symbol id="icon-sms" viewBox="0 0 33.34 29.44"><path d="M4.023 29.444a5.533 5.533 0 0 1-1.826-.3l-1.319-.46 1.013-.967a5.358 5.358 0 0 0 1.7-3.86A13.7 13.7 0 0 1 0 14.722C0 6.6 7.477 0 16.666 0s16.665 6.6 16.665 14.722-7.476 14.722-16.665 14.722a18.447 18.447 0 0 1-7.84-1.731 8.731 8.731 0 0 1-4.803 1.731zm4.605-3.736l.486.248a16.706 16.706 0 0 0 7.552 1.781c8.255 0 14.97-5.839 14.97-13.015S24.92 1.707 16.666 1.707 1.7 7.546 1.7 14.722a12.034 12.034 0 0 0 3.358 8.21l.22.235.01.323a7.1 7.1 0 0 1-1.198 4.247 7.56 7.56 0 0 0 4.11-1.685zm-.045-6.959a6.359 6.359 0 0 1-1.516-.149 2.691 2.691 0 0 1-.806-.3.362.362 0 0 1-.042-.259 2.728 2.728 0 0 1 .063-.419 1.937 1.937 0 0 1 .125-.384.185.185 0 0 1 .146-.154q.362.126.786.245a4.089 4.089 0 0 0 1.077.119 2.912 2.912 0 0 0 1.134-.2.7.7 0 0 0 .466-.7.9.9 0 0 0-.306-.707 3.81 3.81 0 0 0-1.1-.58 7.821 7.821 0 0 1-.81-.37 3.1 3.1 0 0 1-.675-.476 1.967 1.967 0 0 1-.459-.651 2.2 2.2 0 0 1-.167-.9 2.035 2.035 0 0 1 .16-.8 1.673 1.673 0 0 1 .494-.651 2.5 2.5 0 0 1 .855-.434 4.242 4.242 0 0 1 1.245-.161q.472 0 .786.021a5.138 5.138 0 0 1 .515.056 2.3 2.3 0 0 1 .327.077c.084.028.162.051.236.07a.241.241 0 0 1 .1.245 1.876 1.876 0 0 1-.056.434 1.615 1.615 0 0 1-.152.406.2.2 0 0 1-.195.147q-.236-.07-.646-.154a3.96 3.96 0 0 0-.8-.084 1.918 1.918 0 0 0-1.091.224.713.713 0 0 0-.3.6.768.768 0 0 0 .334.651 4.241 4.241 0 0 0 1.043.5 4.5 4.5 0 0 1 1.662 1.029 2.078 2.078 0 0 1 .535 1.464A2.168 2.168 0 0 1 11.3 17.6a1.883 1.883 0 0 1-.668.685 2.886 2.886 0 0 1-.952.358 5.768 5.768 0 0 1-1.097.106zm10.026-.07a.528.528 0 0 1-.382-.1.569.569 0 0 1-.09-.379v-4.9q-.556.91-.856 1.407c-.2.332-.344.575-.438.729s-.149.245-.168.273a.141.141 0 0 0-.027.057c-.083.14-.141.231-.174.273a.247.247 0 0 1-.2.063h-.224a.32.32 0 0 1-.236-.063 1.682 1.682 0 0 1-.167-.273l-1.419-2.436v4.958a.56.56 0 0 1-.063.288.366.366 0 0 1-.327.105h-.582a.853.853 0 0 1-.341-.063.418.418 0 0 1-.146-.413V11.48a.491.491 0 0 1 .1-.371.441.441 0 0 1 .3-.091h.7a.688.688 0 0 1 .257.042.533.533 0 0 1 .216.21l1.849 2.969 1.847-2.939a.506.506 0 0 1 .2-.217.482.482 0 0 1 .229-.063h.765a.3.3 0 0 1 .306.112 1.141 1.141 0 0 1 .041.364v6.778a.652.652 0 0 1-.055.309.359.359 0 0 1-.32.1h-.6zm4.631.07a6.357 6.357 0 0 1-1.516-.148 2.686 2.686 0 0 1-.806-.3.362.362 0 0 1-.042-.259 2.669 2.669 0 0 1 .062-.419 1.907 1.907 0 0 1 .125-.384.183.183 0 0 1 .146-.154q.362.126.786.245a4.068 4.068 0 0 0 1.077.119 2.913 2.913 0 0 0 1.134-.2.705.705 0 0 0 .466-.7.9.9 0 0 0-.307-.707 3.815 3.815 0 0 0-1.1-.58 7.851 7.851 0 0 1-.813-.372 3.113 3.113 0 0 1-.675-.476 1.973 1.973 0 0 1-.458-.651 2.2 2.2 0 0 1-.167-.9 2.043 2.043 0 0 1 .16-.8 1.678 1.678 0 0 1 .494-.651 2.5 2.5 0 0 1 .855-.434 4.247 4.247 0 0 1 1.245-.161q.473 0 .786.021a5.167 5.167 0 0 1 .515.056 2.328 2.328 0 0 1 .327.077c.083.028.162.051.237.07a.242.242 0 0 1 .1.245 1.856 1.856 0 0 1-.056.434 1.619 1.619 0 0 1-.152.406.2.2 0 0 1-.2.147 7.285 7.285 0 0 0-.646-.154 3.962 3.962 0 0 0-.8-.084 1.917 1.917 0 0 0-1.091.224.714.714 0 0 0-.3.6.769.769 0 0 0 .334.651 4.231 4.231 0 0 0 1.043.5 4.5 4.5 0 0 1 1.662 1.029 2.078 2.078 0 0 1 .536 1.464 2.169 2.169 0 0 1-.25 1.093 1.884 1.884 0 0 1-.668.685 2.887 2.887 0 0 1-.953.358 5.769 5.769 0 0 1-1.09.11z" class="cls-1"/></symbol><symbol id="icon-gmail" viewBox="0 0 31.66 23.88"><path d="M2.9 23.886h25.845a2.907 2.907 0 0 0 2.911-2.9V2.893a2.907 2.907 0 0 0-2.911-2.9H2.9a2.907 2.907 0 0 0-2.911 2.9v18.1A2.907 2.907 0 0 0 2.9 23.886zM1.885 2.893A1.013 1.013 0 0 1 2.9 1.883h25.845a1.013 1.013 0 0 1 1.015 1.01v18.1a1.013 1.013 0 0 1-1.015 1.01H2.9a1.013 1.013 0 0 1-1.015-1.01v-18.1zm3.758 17.773H3.748V3.296l11.838 7.646a.449.449 0 0 0 .474 0l11.838-7.646v17.37h-1.9V6.769l-8.91 5.755a2.346 2.346 0 0 1-2.538 0L5.643 6.769v13.9z" class="cls-1"/></symbol></svg>