<svg xmlns="http://www.w3.org/2000/svg"><symbol id="icon-cross" viewBox="0 0 178 178"><defs><style>.cls-1{fill-rule:evenodd}</style></defs><path id="icon-cross" d="M90 179a89 89 0 1 1 89-89 89 89 0 0 1-89 89zm.5-164A75.5 75.5 0 1 0 166 90.5 75.5 75.5 0 0 0 90.5 15zm36.808 111.634l-.678.68a9.082 9.082 0 0 1-12.876 0l-23.916-24-23.627 23.7a9.083 9.083 0 0 1-12.872 0l-.678-.68a9.148 9.148 0 0 1 0-12.91l23.63-23.7-23.14-23.217a9.158 9.158 0 0 1 0-12.92l.678-.68a9.084 9.084 0 0 1 12.877 0l23.142 23.22 23.393-23.463a9.083 9.083 0 0 1 12.872 0l.677.679a9.148 9.148 0 0 1 0 12.911L103.4 89.72l23.913 23.994a9.157 9.157 0 0 1-.005 12.92z" class="cls-1" transform="translate(-1 -1)"/></symbol><symbol id="icon-question" viewBox="0 0 178 178"><defs><style>.cls-1{fill-rule:evenodd}</style></defs><path id="icon-question" d="M90 179a89 89 0 1 1 89-89 89 89 0 0 1-89 89zm.5-164A75.5 75.5 0 1 0 166 90.5 75.5 75.5 0 0 0 90.5 15zm8.065 82.968c-3.248 4.586-2.163 11.024-11.093 11.024-5.815 0-8.656-4.589-8.656-8.784 0-15.618 23.664-19.156 23.664-32.016 0-7.08-4.86-11.277-12.98-11.277-17.314 0-10.553 17.311-23.666 17.311-4.733 0-8.8-2.755-8.8-8 0-12.865 15.148-24.266 31.652-24.266 17.313 0 34.357 7.733 34.357 26.228.004 17.058-20.151 23.612-24.478 29.78zm-10.549 19.543a10.764 10.764 0 1 1-11.1 10.758 10.979 10.979 0 0 1 11.1-10.758z" class="cls-1" transform="translate(-1 -1)"/></symbol><symbol id="icon-timer" viewBox="0 0 179 178.03"><defs><style>.cls-1{fill-rule:evenodd}</style></defs><path id="icon-timer" d="M164.726 137.863c-.067.115-.125.231-.2.345a87.286 87.286 0 0 1-3.11 4.495c-.1.134-.2.254-.308.377a88.735 88.735 0 0 1-49.21 33.036c-.084.024-.172.052-.259.073l-.045.008q-3.36.853-6.815 1.457a88.756 88.756 0 0 1-65.128-13.872l-5.636 8.158c-1.565 2.264-3.445 1.947-4.179-.707l-6.559-23.671a4.03 4.03 0 0 1 3.642-5.272l24.424-2.19c2.737-.247 3.7 1.4 2.135 3.669l-5.623 8.138a75.124 75.124 0 0 0 84.314-.677c.085-.061.171-.121.258-.181a75.287 75.287 0 0 0 .314-123.22 76.766 76.766 0 0 0-7.161-4.482.066.066 0 0 1-.02-.012 78.02 78.02 0 0 0-4.091-2.075c-.072-.033-.134-.075-.2-.111a74.217 74.217 0 0 0-18.46-5.877 7.208 7.208 0 0 1 2.54-14.19 88.654 88.654 0 0 1 35.686 14.96 90.74 90.74 0 0 1 11.465 9.6c.011.011.023.017.033.029l.093.1a89.02 89.02 0 0 1 25.045 48.248 89.09 89.09 0 0 1 .769 5.452c.019.117.045.227.056.343.194 1.8.337 3.638.418 5.447v.185a88.993 88.993 0 0 1-14.188 52.417zM39.681 121.57A5.834 5.834 0 0 1 37 110.555l46.8-24.221v-51.02a5.827 5.827 0 1 1 11.653 0v58.124l-53.1 27.481a5.788 5.788 0 0 1-2.672.651zm36.2-106.232c-1.494.276-3 .6-4.475.971A7.208 7.208 0 0 1 67.925 2.32c1.76-.44 3.553-.829 5.332-1.16a7.209 7.209 0 0 1 2.622 14.178zm-23.964 8.851a75.026 75.026 0 0 0-3.9 2.414 7.205 7.205 0 0 1-7.935-12.029c1.512-1 3.073-1.966 4.642-2.873a7.206 7.206 0 0 1 7.193 12.488zM29.434 44.126a7.2 7.2 0 1 1-11.514-8.652 87.927 87.927 0 0 1 3.415-4.28 7.188 7.188 0 0 1 9.618-1.222c.181.126.355.261.528.407a7.22 7.22 0 0 1 .814 10.162 74.982 74.982 0 0 0-2.861 3.585zM19.3 62.567a78.21 78.21 0 0 0-1.5 4.333 7.2 7.2 0 1 1-13.736-4.308 92.768 92.768 0 0 1 1.788-5.158A7.2 7.2 0 1 1 19.3 62.567zM11.33 81.6a7.2 7.2 0 0 1 3.056 6.056c-.035 1.52-.02 3.063.04 4.584a7.2 7.2 0 1 1-14.383.56A87.334 87.334 0 0 1 0 87.335 7.192 7.192 0 0 1 11.33 81.6zm-2.242 26.761a7.2 7.2 0 0 1 9.094 4.577 75.239 75.239 0 0 0 1.572 4.313A7.2 7.2 0 1 1 6.39 122.6a93.246 93.246 0 0 1-1.873-5.132 7.215 7.215 0 0 1 4.571-9.107z" class="cls-1" transform="translate(0 -.969)"/></symbol><symbol id="icon-tick" viewBox="0 0 178 178"><defs><style>.cls-1{fill-rule:evenodd}</style></defs><path id="icon-tick" d="M90 179a89 89 0 1 1 89-89 89 89 0 0 1-89 89zm.5-164A75.5 75.5 0 1 0 166 90.5 75.5 75.5 0 0 0 90.5 15zm49.729 55.312l-68.214 55.294a10 10 0 0 1-10.984 1.053 9.889 9.889 0 0 1-3.365-2.508L39.2 103.59a9.991 9.991 0 0 1 15.031-13.165l12.4 13.8 61.028-49.468a10 10 0 0 1 12.57 15.555z" class="cls-1" transform="translate(-1 -1)"/></symbol><symbol id="icon-info" viewBox="0 0 178 178"><defs><style>.cls-1{fill-rule:evenodd}</style></defs><path id="icon-info" d="M90 179a89 89 0 1 1 89-89 89 89 0 0 1-89 89zm.5-164A75.5 75.5 0 1 0 166 90.5 75.5 75.5 0 0 0 90.5 15zm8.948 50.9a11.605 11.605 0 0 1-8.184-3.186 10.492 10.492 0 0 1 0-15.482 11.513 11.513 0 0 1 8.184-3.221 11.388 11.388 0 0 1 8.156 3.221 10.531 10.531 0 0 1 0 15.482 11.478 11.478 0 0 1-8.156 3.186zm.068 13.33a11.488 11.488 0 0 1 3.8 8.916q0 1.139-.262 4a27.321 27.321 0 0 1-.975 5.258l-4.839 17.364q-.59 2.1-1.068 4.765a25.378 25.378 0 0 0-.468 4.069c0 2.3.506 3.873 1.53 4.715s2.786 1.259 5.284 1.259a14.868 14.868 0 0 0 4.009-.639 22.107 22.107 0 0 0 3.234-1.1l-1.3 5.366q-5.826 2.326-9.305 3.55a24.229 24.229 0 0 1-8.068 1.228c-4.708 0-8.371-1.177-10.982-3.493a11.352 11.352 0 0 1-3.906-8.86 32.807 32.807 0 0 1 .287-4.271c.2-1.449.512-3.082.94-4.917l4.868-17.415c.428-1.683.8-3.272 1.093-4.749a21.313 21.313 0 0 0 .434-4.1c0-2.215-.453-3.772-1.356-4.645s-2.635-1.3-5.2-1.3a13.445 13.445 0 0 0-3.869.583c-1.312.408-2.451.778-3.385 1.142l1.288-5.369q4.778-1.974 9.146-3.376a26.7 26.7 0 0 1 8.25-1.415c4.673.004 8.279 1.155 10.821 3.436z" class="cls-1" transform="translate(-1 -1)"/></symbol></svg>