<svg xmlns="http://www.w3.org/2000/svg" xmlns:xlink="http://www.w3.org/1999/xlink" width="65" height="87" viewBox="0 0 65 87">
    <defs>
        <path id="a" d="M0 0h65v65H0z"/>
        <path id="b" d="M0 .08h57.607v57.608H0z"/>
        <filter id="d" width="130%" height="300%" x="-15%" y="-100%" filterUnits="objectBoundingBox">
            <feGaussianBlur in="SourceGraphic" stdDeviation="2"/>
        </filter>
    </defs>
    <g fill="none" fill-rule="evenodd">
        <path fill="#FBDA1F" d="M0 32.5C0 14.55 14.55 0 32.5 0S65 14.55 65 32.5 50.45 65 32.5 65 0 50.45 0 32.5"/>
        <path fill="#FFF" d="M55.647 47.872s-10.917 1.97-23.147 1.97c-12.23 0-23.147-1.97-23.147-1.97s-1.97-7.03-1.97-15.372c0-8.343 1.97-15.372 1.97-15.372s10.917-1.97 23.147-1.97c12.23 0 23.147 1.97 23.147 1.97s1.97 7.03 1.97 15.372c0 8.343-1.97 15.372-1.97 15.372"/>
        <path fill="#000" d="M50.067 34.44a5.687 5.687 0 1 1-11.375 0 5.687 5.687 0 0 1 11.375 0M50.597 24.823c-.157 0-.316-.034-.467-.107a19.156 19.156 0 0 0-5.736-1.756 18.42 18.42 0 0 0-6.03.156 1.069 1.069 0 1 1-.404-2.1 20.556 20.556 0 0 1 6.728-.174c2.197.306 4.342.962 6.377 1.95a1.07 1.07 0 0 1-.468 2.031M14.956 34.44a5.687 5.687 0 1 0 11.375 0 5.687 5.687 0 0 0-11.375 0M14.427 24.823a1.07 1.07 0 0 1-.468-2.03 21.293 21.293 0 0 1 6.376-1.95 20.552 20.552 0 0 1 6.728.173 1.07 1.07 0 1 1-.404 2.1 18.42 18.42 0 0 0-6.03-.156 19.157 19.157 0 0 0-5.736 1.756c-.15.073-.31.107-.466.107"/>
        <g opacity=".12" transform="translate(0 7.313)">
            <mask id="c" fill="#fff">
                <use xlink:href="#b"/>
            </mask>
            <path fill="#000" d="M36.969 53.219c-17.95 0-32.5-14.551-32.5-32.5A32.367 32.367 0 0 1 11.862.08C4.619 6.04 0 15.075 0 25.188c0 17.949 14.55 32.5 32.5 32.5 10.113 0 19.146-4.62 25.107-11.862a32.367 32.367 0 0 1-20.638 7.393" mask="url(#c)"/>
        </g>
        <ellipse cx="32.659" cy="80" fill="#D8D8D8" fill-opacity=".6" filter="url(#d)" rx="20" ry="3"/>
    </g>
</svg>
